<svg width="89" height="31" viewBox="0 0 89 31" fill="none" xmlns="http://www.w3.org/2000/svg">
<rect x="0.5" y="0.5" width="88" height="30" rx="3.5" fill="#F8EBE8"/>
<circle cx="16" cy="15.5" r="4" fill="#FD5959"/>
<path d="M36.484 11.6V20H35.284V16.256H30.46V20H29.26V11.6H30.46V15.212H35.284V11.6H36.484ZM44.5783 16.856C44.5783 16.944 44.5703 17.06 44.5543 17.204H39.3943C39.4663 17.764 39.7103 18.216 40.1263 18.56C40.5503 18.896 41.0743 19.064 41.6983 19.064C42.4583 19.064 43.0703 18.808 43.5343 18.296L44.1703 19.04C43.8823 19.376 43.5223 19.632 43.0903 19.808C42.6663 19.984 42.1903 20.072 41.6623 20.072C40.9903 20.072 40.3943 19.936 39.8743 19.664C39.3543 19.384 38.9503 18.996 38.6623 18.5C38.3823 18.004 38.2423 17.444 38.2423 16.82C38.2423 16.204 38.3783 15.648 38.6503 15.152C38.9303 14.656 39.3103 14.272 39.7903 14C40.2783 13.72 40.8263 13.58 41.4343 13.58C42.0423 13.58 42.5823 13.72 43.0543 14C43.5343 14.272 43.9063 14.656 44.1703 15.152C44.4423 15.648 44.5783 16.216 44.5783 16.856ZM41.4343 14.552C40.8823 14.552 40.4183 14.72 40.0423 15.056C39.6743 15.392 39.4583 15.832 39.3943 16.376H43.4743C43.4103 15.84 43.1903 15.404 42.8143 15.068C42.4463 14.724 41.9863 14.552 41.4343 14.552ZM42.5143 12.716L41.4223 12.044L40.3303 12.716H39.2743L40.8823 11.516H41.9623L43.5703 12.716H42.5143ZM44.0263 10.304H45.3343L43.5583 11.66H42.6103L44.0263 10.304ZM49.7539 19.628C49.5859 19.772 49.3779 19.884 49.1299 19.964C48.8819 20.036 48.6259 20.072 48.3619 20.072C47.7219 20.072 47.2259 19.9 46.8739 19.556C46.5219 19.212 46.3459 18.72 46.3459 18.08V14.588H45.2659V13.64H46.3459V12.248H47.4979V13.64H49.3219V14.588H47.4979V18.032C47.4979 18.376 47.5819 18.64 47.7499 18.824C47.9259 19.008 48.1739 19.1 48.4939 19.1C48.8459 19.1 49.1459 19 49.3939 18.8L49.7539 19.628ZM57.7653 13.58C58.5733 13.58 59.2133 13.816 59.6853 14.288C60.1653 14.752 60.4053 15.436 60.4053 16.34V20H59.2533V16.472C59.2533 15.856 59.1053 15.392 58.8093 15.08C58.5133 14.768 58.0893 14.612 57.5373 14.612C56.9133 14.612 56.4213 14.796 56.0613 15.164C55.7013 15.524 55.5213 16.044 55.5213 16.724V20H54.3693V11.096H55.5213V14.54C55.7613 14.236 56.0733 14 56.4573 13.832C56.8493 13.664 57.2853 13.58 57.7653 13.58ZM64.8533 13.58C65.7333 13.58 66.4053 13.796 66.8693 14.228C67.3413 14.66 67.5773 15.304 67.5773 16.16V20H66.4853V19.16C66.2933 19.456 66.0173 19.684 65.6573 19.844C65.3053 19.996 64.8853 20.072 64.3973 20.072C63.6853 20.072 63.1133 19.9 62.6813 19.556C62.2573 19.212 62.0453 18.76 62.0453 18.2C62.0453 17.64 62.2493 17.192 62.6573 16.856C63.0653 16.512 63.7133 16.34 64.6013 16.34H66.4253V16.112C66.4253 15.616 66.2813 15.236 65.9933 14.972C65.7053 14.708 65.2813 14.576 64.7213 14.576C64.3453 14.576 63.9773 14.64 63.6173 14.768C63.2573 14.888 62.9533 15.052 62.7053 15.26L62.2253 14.396C62.5533 14.132 62.9453 13.932 63.4013 13.796C63.8573 13.652 64.3413 13.58 64.8533 13.58ZM64.5893 19.184C65.0293 19.184 65.4093 19.088 65.7293 18.896C66.0493 18.696 66.2813 18.416 66.4253 18.056V17.168H64.6493C63.6733 17.168 63.1853 17.496 63.1853 18.152C63.1853 18.472 63.3093 18.724 63.5573 18.908C63.8053 19.092 64.1493 19.184 64.5893 19.184ZM64.9133 22.352C64.7453 22.352 64.6013 22.296 64.4813 22.184C64.3613 22.072 64.3013 21.928 64.3013 21.752C64.3013 21.576 64.3613 21.428 64.4813 21.308C64.6013 21.188 64.7453 21.128 64.9133 21.128C65.0813 21.128 65.2253 21.188 65.3453 21.308C65.4653 21.428 65.5253 21.576 65.5253 21.752C65.5253 21.928 65.4653 22.072 65.3453 22.184C65.2253 22.296 65.0813 22.352 64.9133 22.352ZM73.1052 13.58C73.9132 13.58 74.5532 13.816 75.0252 14.288C75.5052 14.752 75.7452 15.436 75.7452 16.34V20H74.5932V16.472C74.5932 15.856 74.4452 15.392 74.1492 15.08C73.8532 14.768 73.4292 14.612 72.8772 14.612C72.2532 14.612 71.7612 14.796 71.4012 15.164C71.0412 15.524 70.8612 16.044 70.8612 16.724V20H69.7092V13.64H70.8132V14.6C71.0452 14.272 71.3572 14.02 71.7492 13.844C72.1492 13.668 72.6012 13.58 73.1052 13.58Z" fill="#FD5959"/>
<rect x="0.5" y="0.5" width="88" height="30" rx="3.5" stroke="#FD5959"/>
</svg>
