<svg width="126" height="31" viewBox="0 0 126 31" fill="none" xmlns="http://www.w3.org/2000/svg">
<rect x="0.5" y="0.5" width="125" height="30" rx="3.5" fill="#DEF7E0"/>
<circle cx="16" cy="15.5" r="4" fill="#03AC00"/>
<path d="M33.016 20.096C32.176 20.096 31.416 19.912 30.736 19.544C30.064 19.168 29.536 18.656 29.152 18.008C28.768 17.352 28.576 16.616 28.576 15.8C28.576 14.984 28.768 14.252 29.152 13.604C29.536 12.948 30.068 12.436 30.748 12.068C31.428 11.692 32.188 11.504 33.028 11.504C33.684 11.504 34.284 11.616 34.828 11.84C35.372 12.056 35.836 12.38 36.22 12.812L35.44 13.568C34.808 12.904 34.02 12.572 33.076 12.572C32.452 12.572 31.888 12.712 31.384 12.992C30.88 13.272 30.484 13.66 30.196 14.156C29.916 14.644 29.776 15.192 29.776 15.8C29.776 16.408 29.916 16.96 30.196 17.456C30.484 17.944 30.88 18.328 31.384 18.608C31.888 18.888 32.452 19.028 33.076 19.028C34.012 19.028 34.8 18.692 35.44 18.02L36.22 18.776C35.836 19.208 35.368 19.536 34.816 19.76C34.272 19.984 33.672 20.096 33.016 20.096ZM41.1599 13.58C41.9679 13.58 42.6079 13.816 43.0799 14.288C43.5599 14.752 43.7999 15.436 43.7999 16.34V20H42.6479V16.472C42.6479 15.856 42.4999 15.392 42.2039 15.08C41.9079 14.768 41.4839 14.612 40.9319 14.612C40.3079 14.612 39.8159 14.796 39.4559 15.164C39.0959 15.524 38.9159 16.044 38.9159 16.724V20H37.7639V11.096H38.9159V14.54C39.1559 14.236 39.4679 14 39.8519 13.832C40.2439 13.664 40.6799 13.58 41.1599 13.58ZM51.8598 13.64V20H50.7678V19.04C50.5358 19.368 50.2278 19.624 49.8438 19.808C49.4678 19.984 49.0558 20.072 48.6078 20.072C47.7598 20.072 47.0918 19.84 46.6038 19.376C46.1158 18.904 45.8718 18.212 45.8718 17.3V13.64H47.0238V17.168C47.0238 17.784 47.1718 18.252 47.4678 18.572C47.7638 18.884 48.1878 19.04 48.7398 19.04C49.3478 19.04 49.8278 18.856 50.1798 18.488C50.5318 18.12 50.7078 17.6 50.7078 16.928V13.64H51.8598ZM51.0798 13.64H51.2958C51.5518 13.64 51.7438 13.568 51.8718 13.424C51.9998 13.28 52.0638 13.092 52.0638 12.86C52.0638 12.572 51.9838 12.32 51.8238 12.104L52.5558 11.828C52.7798 12.132 52.8918 12.488 52.8918 12.896C52.8918 13.392 52.7478 13.788 52.4598 14.084C52.1798 14.372 51.7918 14.516 51.2958 14.516H51.0798V13.64ZM56.2986 13.58C57.1786 13.58 57.8506 13.796 58.3146 14.228C58.7866 14.66 59.0226 15.304 59.0226 16.16V20H57.9306V19.16C57.7386 19.456 57.4626 19.684 57.1026 19.844C56.7506 19.996 56.3306 20.072 55.8426 20.072C55.1306 20.072 54.5586 19.9 54.1266 19.556C53.7026 19.212 53.4906 18.76 53.4906 18.2C53.4906 17.64 53.6946 17.192 54.1026 16.856C54.5106 16.512 55.1586 16.34 56.0466 16.34H57.8706V16.112C57.8706 15.616 57.7266 15.236 57.4386 14.972C57.1506 14.708 56.7266 14.576 56.1666 14.576C55.7906 14.576 55.4226 14.64 55.0626 14.768C54.7026 14.888 54.3986 15.052 54.1506 15.26L53.6706 14.396C53.9986 14.132 54.3906 13.932 54.8466 13.796C55.3026 13.652 55.7866 13.58 56.2986 13.58ZM56.0346 19.184C56.4746 19.184 56.8546 19.088 57.1746 18.896C57.4946 18.696 57.7266 18.416 57.8706 18.056V17.168H56.0946C55.1186 17.168 54.6306 17.496 54.6306 18.152C54.6306 18.472 54.7546 18.724 55.0026 18.908C55.2506 19.092 55.5946 19.184 56.0346 19.184ZM66.2012 20.072C65.6812 20.072 65.1812 20.004 64.7012 19.868C64.2212 19.724 63.8452 19.544 63.5732 19.328L64.0532 18.416C64.3332 18.616 64.6732 18.776 65.0732 18.896C65.4732 19.016 65.8772 19.076 66.2852 19.076C67.2932 19.076 67.7972 18.788 67.7972 18.212C67.7972 18.02 67.7292 17.868 67.5932 17.756C67.4572 17.644 67.2852 17.564 67.0772 17.516C66.8772 17.46 66.5892 17.4 66.2132 17.336C65.7012 17.256 65.2812 17.164 64.9532 17.06C64.6332 16.956 64.3572 16.78 64.1252 16.532C63.8932 16.284 63.7772 15.936 63.7772 15.488C63.7772 14.912 64.0172 14.452 64.4972 14.108C64.9772 13.756 65.6212 13.58 66.4292 13.58C66.8532 13.58 67.2772 13.632 67.7012 13.736C68.1252 13.84 68.4732 13.98 68.7452 14.156L68.2532 15.068C67.7332 14.732 67.1212 14.564 66.4172 14.564C65.9292 14.564 65.5572 14.644 65.3012 14.804C65.0452 14.964 64.9172 15.176 64.9172 15.44C64.9172 15.648 64.9892 15.812 65.1332 15.932C65.2772 16.052 65.4532 16.14 65.6612 16.196C65.8772 16.252 66.1772 16.316 66.5612 16.388C67.0732 16.476 67.4852 16.572 67.7972 16.676C68.1172 16.772 68.3892 16.94 68.6132 17.18C68.8372 17.42 68.9492 17.756 68.9492 18.188C68.9492 18.764 68.7012 19.224 68.2052 19.568C67.7172 19.904 67.0492 20.072 66.2012 20.072ZM76.3169 13.64V20H75.2249V19.04C74.9929 19.368 74.6849 19.624 74.3009 19.808C73.9249 19.984 73.5129 20.072 73.0649 20.072C72.2169 20.072 71.5489 19.84 71.0609 19.376C70.5729 18.904 70.3289 18.212 70.3289 17.3V13.64H71.4809V17.168C71.4809 17.784 71.6289 18.252 71.9249 18.572C72.2209 18.884 72.6449 19.04 73.1969 19.04C73.8049 19.04 74.2849 18.856 74.6369 18.488C74.9889 18.12 75.1649 17.6 75.1649 16.928V13.64H76.3169ZM75.5369 13.64H75.7529C76.0089 13.64 76.2009 13.568 76.3289 13.424C76.4569 13.28 76.5209 13.092 76.5209 12.86C76.5209 12.572 76.4409 12.32 76.2809 12.104L77.0129 11.828C77.2369 12.132 77.3489 12.488 77.3489 12.896C77.3489 13.392 77.2049 13.788 76.9169 14.084C76.6369 14.372 76.2489 14.516 75.7529 14.516H75.5369V13.64ZM73.1609 12.356C73.3929 12.252 73.5609 12.136 73.6649 12.008C73.7769 11.872 73.8329 11.72 73.8329 11.552C73.8329 11.392 73.7729 11.26 73.6529 11.156C73.5409 11.044 73.3929 10.988 73.2089 10.988C72.9609 10.988 72.7209 11.064 72.4889 11.216L72.2249 10.676C72.3689 10.564 72.5369 10.48 72.7289 10.424C72.9209 10.368 73.1169 10.34 73.3169 10.34C73.6769 10.34 73.9689 10.444 74.1929 10.652C74.4249 10.852 74.5409 11.12 74.5409 11.456C74.5409 12.064 74.2129 12.52 73.5569 12.824L73.1609 12.356ZM87.8264 11.096V20H86.7224V18.992C86.4664 19.344 86.1424 19.612 85.7504 19.796C85.3584 19.98 84.9264 20.072 84.4544 20.072C83.8384 20.072 83.2864 19.936 82.7984 19.664C82.3104 19.392 81.9264 19.012 81.6464 18.524C81.3744 18.028 81.2384 17.46 81.2384 16.82C81.2384 16.18 81.3744 15.616 81.6464 15.128C81.9264 14.64 82.3104 14.26 82.7984 13.988C83.2864 13.716 83.8384 13.58 84.4544 13.58C84.9104 13.58 85.3304 13.668 85.7144 13.844C86.0984 14.012 86.4184 14.264 86.6744 14.6V11.096H87.8264ZM84.5504 19.064C84.9504 19.064 85.3144 18.972 85.6424 18.788C85.9704 18.596 86.2264 18.332 86.4104 17.996C86.5944 17.652 86.6864 17.26 86.6864 16.82C86.6864 16.38 86.5944 15.992 86.4104 15.656C86.2264 15.312 85.9704 15.048 85.6424 14.864C85.3144 14.68 84.9504 14.588 84.5504 14.588C84.1424 14.588 83.7744 14.68 83.4464 14.864C83.1264 15.048 82.8704 15.312 82.6784 15.656C82.4944 15.992 82.4024 16.38 82.4024 16.82C82.4024 17.26 82.4944 17.652 82.6784 17.996C82.8704 18.332 83.1264 18.596 83.4464 18.788C83.7744 18.972 84.1424 19.064 84.5504 19.064ZM95.9341 13.64V20H94.8421V19.04C94.6101 19.368 94.3021 19.624 93.9181 19.808C93.5421 19.984 93.1301 20.072 92.6821 20.072C91.8341 20.072 91.1661 19.84 90.6781 19.376C90.1901 18.904 89.9461 18.212 89.9461 17.3V13.64H91.0981V17.168C91.0981 17.784 91.2461 18.252 91.5421 18.572C91.8381 18.884 92.2621 19.04 92.8141 19.04C93.4221 19.04 93.9021 18.856 94.2541 18.488C94.6061 18.12 94.7821 17.6 94.7821 16.928V13.64H95.9341ZM92.9461 22.352C92.7781 22.352 92.6341 22.296 92.5141 22.184C92.3941 22.072 92.3341 21.928 92.3341 21.752C92.3341 21.576 92.3941 21.428 92.5141 21.308C92.6341 21.188 92.7781 21.128 92.9461 21.128C93.1141 21.128 93.2581 21.188 93.3781 21.308C93.4981 21.428 93.5581 21.576 93.5581 21.752C93.5581 21.928 93.4981 22.072 93.3781 22.184C93.2581 22.296 93.1141 22.352 92.9461 22.352ZM101.523 13.58C102.331 13.58 102.971 13.816 103.443 14.288C103.923 14.752 104.163 15.436 104.163 16.34V20H103.011V16.472C103.011 15.856 102.863 15.392 102.567 15.08C102.271 14.768 101.847 14.612 101.295 14.612C100.671 14.612 100.179 14.796 99.8192 15.164C99.4592 15.524 99.2792 16.044 99.2792 16.724V20H98.1272V13.64H99.2312V14.6C99.4632 14.272 99.7752 14.02 100.167 13.844C100.567 13.668 101.019 13.58 101.523 13.58ZM112.414 13.64V19.136C112.414 20.248 112.138 21.068 111.586 21.596C111.034 22.132 110.21 22.4 109.114 22.4C108.514 22.4 107.942 22.316 107.398 22.148C106.854 21.988 106.414 21.756 106.078 21.452L106.63 20.564C106.926 20.82 107.29 21.02 107.722 21.164C108.162 21.316 108.614 21.392 109.078 21.392C109.822 21.392 110.37 21.216 110.722 20.864C111.082 20.512 111.262 19.976 111.262 19.256V18.752C110.99 19.08 110.654 19.328 110.254 19.496C109.862 19.656 109.434 19.736 108.97 19.736C108.362 19.736 107.81 19.608 107.314 19.352C106.826 19.088 106.442 18.724 106.162 18.26C105.882 17.788 105.742 17.252 105.742 16.652C105.742 16.052 105.882 15.52 106.162 15.056C106.442 14.584 106.826 14.22 107.314 13.964C107.81 13.708 108.362 13.58 108.97 13.58C109.45 13.58 109.894 13.668 110.302 13.844C110.718 14.02 111.058 14.28 111.322 14.624V13.64H112.414ZM109.102 18.728C109.518 18.728 109.89 18.64 110.218 18.464C110.554 18.288 110.814 18.044 110.998 17.732C111.19 17.412 111.286 17.052 111.286 16.652C111.286 16.036 111.082 15.54 110.674 15.164C110.266 14.78 109.742 14.588 109.102 14.588C108.454 14.588 107.926 14.78 107.518 15.164C107.11 15.54 106.906 16.036 106.906 16.652C106.906 17.052 106.998 17.412 107.182 17.732C107.374 18.044 107.634 18.288 107.962 18.464C108.298 18.64 108.678 18.728 109.102 18.728Z" fill="#03AC00"/>
<rect x="0.5" y="0.5" width="125" height="30" rx="3.5" stroke="#03AC00"/>
</svg>
