<svg width="111" height="31" viewBox="0 0 111 31" fill="none" xmlns="http://www.w3.org/2000/svg">
<rect x="0.5" y="0.5" width="110" height="30" rx="3.5" fill="#EAF1F8"/>
<circle cx="16" cy="15.5" r="4" fill="#919DBA"/>
<path d="M29.356 11.6H32.896C33.784 11.6 34.572 11.776 35.26 12.128C35.948 12.48 36.48 12.976 36.856 13.616C37.24 14.248 37.432 14.976 37.432 15.8C37.432 16.624 37.24 17.356 36.856 17.996C36.48 18.628 35.948 19.12 35.26 19.472C34.572 19.824 33.784 20 32.896 20H29.356V11.6ZM32.824 18.956C33.504 18.956 34.1 18.824 34.612 18.56C35.132 18.296 35.532 17.928 35.812 17.456C36.092 16.976 36.232 16.424 36.232 15.8C36.232 15.176 36.092 14.628 35.812 14.156C35.532 13.676 35.132 13.304 34.612 13.04C34.1 12.776 33.504 12.644 32.824 12.644H30.556V18.956H32.824ZM28.132 15.248H32.932V16.196H28.132V15.248ZM41.4158 13.58C42.2958 13.58 42.9678 13.796 43.4318 14.228C43.9038 14.66 44.1398 15.304 44.1398 16.16V20H43.0478V19.16C42.8558 19.456 42.5798 19.684 42.2198 19.844C41.8678 19.996 41.4478 20.072 40.9598 20.072C40.2478 20.072 39.6758 19.9 39.2438 19.556C38.8198 19.212 38.6078 18.76 38.6078 18.2C38.6078 17.64 38.8118 17.192 39.2198 16.856C39.6278 16.512 40.2758 16.34 41.1638 16.34H42.9878V16.112C42.9878 15.616 42.8438 15.236 42.5558 14.972C42.2678 14.708 41.8438 14.576 41.2838 14.576C40.9078 14.576 40.5398 14.64 40.1798 14.768C39.8198 14.888 39.5158 15.052 39.2678 15.26L38.7878 14.396C39.1158 14.132 39.5078 13.932 39.9638 13.796C40.4198 13.652 40.9038 13.58 41.4158 13.58ZM41.1518 19.184C41.5918 19.184 41.9718 19.088 42.2918 18.896C42.6118 18.696 42.8438 18.416 42.9878 18.056V17.168H41.2118C40.2358 17.168 39.7478 17.496 39.7478 18.152C39.7478 18.472 39.8718 18.724 40.1198 18.908C40.3678 19.092 40.7118 19.184 41.1518 19.184ZM42.3398 12.68C42.1478 12.68 41.9798 12.64 41.8358 12.56C41.6998 12.48 41.5278 12.36 41.3198 12.2C41.1998 12.088 41.0958 12.008 41.0078 11.96C40.9198 11.904 40.8318 11.876 40.7438 11.876C40.5678 11.876 40.4238 11.944 40.3118 12.08C40.1998 12.208 40.1398 12.388 40.1318 12.62H39.4838C39.4998 12.172 39.6118 11.816 39.8198 11.552C40.0358 11.288 40.3158 11.156 40.6598 11.156C40.8518 11.156 41.0198 11.2 41.1638 11.288C41.3158 11.368 41.4878 11.488 41.6798 11.648C41.8158 11.76 41.9238 11.844 42.0038 11.9C42.0838 11.948 42.1678 11.972 42.2558 11.972C42.4318 11.972 42.5758 11.908 42.6878 11.78C42.7998 11.652 42.8598 11.476 42.8678 11.252H43.5158C43.4998 11.684 43.3838 12.032 43.1678 12.296C42.9598 12.552 42.6838 12.68 42.3398 12.68ZM51.3183 20.072C50.7983 20.072 50.2983 20.004 49.8183 19.868C49.3383 19.724 48.9623 19.544 48.6903 19.328L49.1703 18.416C49.4503 18.616 49.7903 18.776 50.1903 18.896C50.5903 19.016 50.9943 19.076 51.4023 19.076C52.4103 19.076 52.9143 18.788 52.9143 18.212C52.9143 18.02 52.8463 17.868 52.7103 17.756C52.5743 17.644 52.4023 17.564 52.1943 17.516C51.9943 17.46 51.7063 17.4 51.3303 17.336C50.8183 17.256 50.3983 17.164 50.0703 17.06C49.7503 16.956 49.4743 16.78 49.2423 16.532C49.0103 16.284 48.8943 15.936 48.8943 15.488C48.8943 14.912 49.1343 14.452 49.6143 14.108C50.0943 13.756 50.7383 13.58 51.5463 13.58C51.9703 13.58 52.3943 13.632 52.8183 13.736C53.2423 13.84 53.5903 13.98 53.8623 14.156L53.3703 15.068C52.8503 14.732 52.2383 14.564 51.5343 14.564C51.0463 14.564 50.6743 14.644 50.4183 14.804C50.1623 14.964 50.0343 15.176 50.0343 15.44C50.0343 15.648 50.1063 15.812 50.2503 15.932C50.3943 16.052 50.5703 16.14 50.7783 16.196C50.9943 16.252 51.2943 16.316 51.6783 16.388C52.1903 16.476 52.6023 16.572 52.9143 16.676C53.2343 16.772 53.5063 16.94 53.7303 17.18C53.9543 17.42 54.0663 17.756 54.0663 18.188C54.0663 18.764 53.8183 19.224 53.3223 19.568C52.8343 19.904 52.1663 20.072 51.3183 20.072ZM61.4341 13.64V20H60.3421V19.04C60.1101 19.368 59.8021 19.624 59.4181 19.808C59.0421 19.984 58.6301 20.072 58.1821 20.072C57.3341 20.072 56.6661 19.84 56.1781 19.376C55.6901 18.904 55.4461 18.212 55.4461 17.3V13.64H56.5981V17.168C56.5981 17.784 56.7461 18.252 57.0421 18.572C57.3381 18.884 57.7621 19.04 58.3141 19.04C58.9221 19.04 59.4021 18.856 59.7541 18.488C60.1061 18.12 60.2821 17.6 60.2821 16.928V13.64H61.4341ZM60.6541 13.64H60.8701C61.1261 13.64 61.3181 13.568 61.4461 13.424C61.5741 13.28 61.6381 13.092 61.6381 12.86C61.6381 12.572 61.5581 12.32 61.3981 12.104L62.1301 11.828C62.3541 12.132 62.4661 12.488 62.4661 12.896C62.4661 13.392 62.3221 13.788 62.0341 14.084C61.7541 14.372 61.3661 14.516 60.8701 14.516H60.6541V13.64ZM58.2781 12.356C58.5101 12.252 58.6781 12.136 58.7821 12.008C58.8941 11.872 58.9501 11.72 58.9501 11.552C58.9501 11.392 58.8901 11.26 58.7701 11.156C58.6581 11.044 58.5101 10.988 58.3261 10.988C58.0781 10.988 57.8381 11.064 57.6061 11.216L57.3421 10.676C57.4861 10.564 57.6541 10.48 57.8461 10.424C58.0381 10.368 58.2341 10.34 58.4341 10.34C58.7941 10.34 59.0861 10.444 59.3101 10.652C59.5421 10.852 59.6581 11.12 59.6581 11.456C59.6581 12.064 59.3301 12.52 58.6741 12.824L58.2781 12.356ZM72.9436 11.096V20H71.8396V18.992C71.5836 19.344 71.2596 19.612 70.8676 19.796C70.4756 19.98 70.0436 20.072 69.5716 20.072C68.9556 20.072 68.4036 19.936 67.9156 19.664C67.4276 19.392 67.0436 19.012 66.7636 18.524C66.4916 18.028 66.3556 17.46 66.3556 16.82C66.3556 16.18 66.4916 15.616 66.7636 15.128C67.0436 14.64 67.4276 14.26 67.9156 13.988C68.4036 13.716 68.9556 13.58 69.5716 13.58C70.0276 13.58 70.4476 13.668 70.8316 13.844C71.2156 14.012 71.5356 14.264 71.7916 14.6V11.096H72.9436ZM69.6676 19.064C70.0676 19.064 70.4316 18.972 70.7596 18.788C71.0876 18.596 71.3436 18.332 71.5276 17.996C71.7116 17.652 71.8036 17.26 71.8036 16.82C71.8036 16.38 71.7116 15.992 71.5276 15.656C71.3436 15.312 71.0876 15.048 70.7596 14.864C70.4316 14.68 70.0676 14.588 69.6676 14.588C69.2596 14.588 68.8916 14.68 68.5636 14.864C68.2436 15.048 67.9876 15.312 67.7956 15.656C67.6116 15.992 67.5196 16.38 67.5196 16.82C67.5196 17.26 67.6116 17.652 67.7956 17.996C67.9876 18.332 68.2436 18.596 68.5636 18.788C68.8916 18.972 69.2596 19.064 69.6676 19.064ZM81.0513 13.64V20H79.9593V19.04C79.7273 19.368 79.4193 19.624 79.0353 19.808C78.6593 19.984 78.2473 20.072 77.7993 20.072C76.9513 20.072 76.2833 19.84 75.7952 19.376C75.3073 18.904 75.0633 18.212 75.0633 17.3V13.64H76.2153V17.168C76.2153 17.784 76.3633 18.252 76.6593 18.572C76.9553 18.884 77.3793 19.04 77.9313 19.04C78.5393 19.04 79.0193 18.856 79.3713 18.488C79.7233 18.12 79.8993 17.6 79.8993 16.928V13.64H81.0513ZM78.0633 22.352C77.8953 22.352 77.7513 22.296 77.6313 22.184C77.5113 22.072 77.4513 21.928 77.4513 21.752C77.4513 21.576 77.5113 21.428 77.6313 21.308C77.7513 21.188 77.8953 21.128 78.0633 21.128C78.2313 21.128 78.3753 21.188 78.4953 21.308C78.6153 21.428 78.6753 21.576 78.6753 21.752C78.6753 21.928 78.6153 22.072 78.4953 22.184C78.3753 22.296 78.2313 22.352 78.0633 22.352ZM86.6403 13.58C87.4483 13.58 88.0883 13.816 88.5603 14.288C89.0403 14.752 89.2803 15.436 89.2803 16.34V20H88.1283V16.472C88.1283 15.856 87.9803 15.392 87.6843 15.08C87.3883 14.768 86.9643 14.612 86.4123 14.612C85.7883 14.612 85.2963 14.796 84.9363 15.164C84.5763 15.524 84.3963 16.044 84.3963 16.724V20H83.2443V13.64H84.3483V14.6C84.5803 14.272 84.8923 14.02 85.2843 13.844C85.6843 13.668 86.1363 13.58 86.6403 13.58ZM97.5315 13.64V19.136C97.5315 20.248 97.2555 21.068 96.7035 21.596C96.1515 22.132 95.3275 22.4 94.2315 22.4C93.6315 22.4 93.0595 22.316 92.5155 22.148C91.9715 21.988 91.5315 21.756 91.1955 21.452L91.7475 20.564C92.0435 20.82 92.4075 21.02 92.8395 21.164C93.2795 21.316 93.7315 21.392 94.1955 21.392C94.9395 21.392 95.4875 21.216 95.8395 20.864C96.1995 20.512 96.3795 19.976 96.3795 19.256V18.752C96.1075 19.08 95.7715 19.328 95.3715 19.496C94.9795 19.656 94.5515 19.736 94.0875 19.736C93.4795 19.736 92.9275 19.608 92.4315 19.352C91.9435 19.088 91.5595 18.724 91.2795 18.26C90.9995 17.788 90.8595 17.252 90.8595 16.652C90.8595 16.052 90.9995 15.52 91.2795 15.056C91.5595 14.584 91.9435 14.22 92.4315 13.964C92.9275 13.708 93.4795 13.58 94.0875 13.58C94.5675 13.58 95.0115 13.668 95.4195 13.844C95.8355 14.02 96.1755 14.28 96.4395 14.624V13.64H97.5315ZM94.2195 18.728C94.6355 18.728 95.0075 18.64 95.3355 18.464C95.6715 18.288 95.9315 18.044 96.1155 17.732C96.3075 17.412 96.4035 17.052 96.4035 16.652C96.4035 16.036 96.1995 15.54 95.7915 15.164C95.3835 14.78 94.8595 14.588 94.2195 14.588C93.5715 14.588 93.0435 14.78 92.6355 15.164C92.2275 15.54 92.0235 16.036 92.0235 16.652C92.0235 17.052 92.1155 17.412 92.2995 17.732C92.4915 18.044 92.7515 18.288 93.0795 18.464C93.4155 18.64 93.7955 18.728 94.2195 18.728Z" fill="#919DBA"/>
<rect x="0.5" y="0.5" width="110" height="30" rx="3.5" stroke="#919DBA"/>
</svg>
